<svg xmlns="http://www.w3.org/2000/svg" viewBox="0 0 285.83 214.57"><defs><style>.cls-1{fill:#dd4687;}.cls-2{fill:#632264;}.cls-3{fill:#fbdce9;}</style></defs><title>Asset 1</title><g id="Layer_2" data-name="Layer 2"><g id="v3-b"><path class="cls-1" d="M6.87,56.52a2.37,2.37,0,0,1,.1.75,3.72,3.72,0,0,1-.05.7.22.22,0,0,1-.3.2c-.17,0-.42-.32-.75-.85q-1-1.7-2.46-4.71A35.87,35.87,0,0,1,1,45.84a34.54,34.54,0,0,1-1-8.08A22.24,22.24,0,0,1,1.76,29,49.59,49.59,0,0,1,7.68,17.95,51.63,51.63,0,0,1,15.7,9,39.63,39.63,0,0,1,25.23,2.8,30.38,30.38,0,0,1,35.76,0a18.68,18.68,0,0,1,6.07.55,15.75,15.75,0,0,1,4.92,2.26,17.12,17.12,0,0,1,3.66,3.41,16.69,16.69,0,0,1,2.31,3.81q1.5,3.61,1.05,10a116.82,116.82,0,0,1-2.11,14.6Q50,42.88,47.4,52.31T42,71.37a185.25,185.25,0,0,1,8.63-18.91,161.7,161.7,0,0,1,8.48-14.3,59.3,59.3,0,0,1,7.77-9.58,25.79,25.79,0,0,1,6.52-4.87,5.81,5.81,0,0,1,4.36-.1,8.44,8.44,0,0,1,3.76,2.91A15.87,15.87,0,0,1,84,31.69a17.3,17.3,0,0,1,.6,6.47A96.4,96.4,0,0,1,82.76,49q-1.35,6.07-3.16,13t-4,14.4q-2.21,7.47-4.26,15.2T67.57,107c-1.14,5.08-2.16,15.56-2.51,20.32-1.11,15.13,1.09,21.19,5.48,25.57,7.48,7.46,25.46,6.79,35.62,1.44,10.68-5.63,24-18.31,40.36-18.52,9.28-.12,15,2.11,22.32,5.35a72.93,72.93,0,0,1,21.32,15,3.76,3.76,0,0,1,1.15,1.81,1.83,1.83,0,0,1-.15,1.3,1,1,0,0,1-1.1.4,2.6,2.6,0,0,1-1.61-1.1c-5.35-5.55-14.23-12.07-20-14.81-10.8-5.16-23.82-7.55-36.59,1.19-23,15.78-32.7,24.88-55.86,13.65-11.86-5.75-15.54-14.68-17.68-19.43a44.36,44.36,0,0,1-3.81-14.95,140,140,0,0,1,.9-22.73q1.4-9.33,3.81-18.91T64.51,64q2.86-9,5.22-16.1t3.61-11.69q1.25-4.56.35-5.07-1.41-.9-3.66,1.05A33.81,33.81,0,0,0,65,38.11a106.3,106.3,0,0,0-6,9.63q-3.16,5.67-6.42,12.14T46.15,73.28q-3.16,6.92-6,13.49t-5,12.44q-2.21,5.87-3.51,10.18l-.2.5-.8,3.91a32.39,32.39,0,0,0-.55,5.62,49.63,49.63,0,0,0,.2,5.62,30.5,30.5,0,0,0,.7,4.41,3.9,3.9,0,0,0,1.05,2.21.7.7,0,0,1,.3.75,1.17,1.17,0,0,1-.7.75,4.38,4.38,0,0,1-1.45.4,3.82,3.82,0,0,1-1.86-.3q-3.61-1.5-5.87-6.32a24.1,24.1,0,0,1-2-11.44,78.88,78.88,0,0,1,1.66-12.39q1.45-7.17,3.56-15.55t4.71-17.36q2.61-9,5.17-17.86t4.71-17.2q2.16-8.33,3.46-15.35a40.38,40.38,0,0,0,.7-4.77,26.84,26.84,0,0,0,.05-4.31,11.74,11.74,0,0,0-.65-3.26,2.47,2.47,0,0,0-1.4-1.61,5.13,5.13,0,0,0-2.11-.5,11.73,11.73,0,0,0-3.26.3,19.31,19.31,0,0,0-4,1.4,18.51,18.51,0,0,0-4.16,2.71,70.22,70.22,0,0,0-7.37,7,52.43,52.43,0,0,0-6.82,9.33A61.65,61.65,0,0,0,9.53,38,59.24,59.24,0,0,0,6.87,52.61a22.77,22.77,0,0,0-.05,2.51C6.86,55.79,6.87,56.25,6.87,56.52Z"/><path class="cls-1" d="M100.67,70.77q2.91.3,4.62,3.51a11,11,0,0,0-.3-3.11q-.5-1.1.2-1.25a4.81,4.81,0,0,1,2.06.2,10.85,10.85,0,0,1,3,1.4,19.42,19.42,0,0,1,3.06,2.41,10.68,10.68,0,0,1,2.26,3.16,6.64,6.64,0,0,1,.65,3.61,26.43,26.43,0,0,1-1,4q-.9,3-2.06,6.87t-2.31,8.18q-1.16,4.27-1.91,7.92a35,35,0,0,0-.8,6.17q-.05,2.51,1.15,2.71,1.2.4,3.06-2.16a56.25,56.25,0,0,0,4-6.52q2.11-4,4.21-8.63t3.71-8.58c.27-.73.6-1.17,1-1.3a1.22,1.22,0,0,1,1.15.2,2.86,2.86,0,0,1,.9,1.25,3.75,3.75,0,0,1,.15,2.06q-1.3,4.31-3.21,9.43a70.55,70.55,0,0,1-4.41,9.63,41.2,41.2,0,0,1-5.32,7.62q-2.81,3.11-5.82,3.31a6.33,6.33,0,0,1-3.51-.8,10.33,10.33,0,0,1-2.81-2.31,11.2,11.2,0,0,1-1.9-3.16,18.7,18.7,0,0,1-1-3.26,31,31,0,0,1-3.56,6.32,6.27,6.27,0,0,1-4.57,2.81,7.34,7.34,0,0,1-5.47-2.26,15.45,15.45,0,0,1-3.81-6.72A32.64,32.64,0,0,1,80.86,103a54.93,54.93,0,0,1,2.26-13.49,67.35,67.35,0,0,1,2.76-7.42A25.22,25.22,0,0,1,89.64,76a17,17,0,0,1,4.92-4.06A10.69,10.69,0,0,1,100.67,70.77Zm-9.93,46.15a3.94,3.94,0,0,0,2.81-1.86,22.67,22.67,0,0,0,2.51-4.56q1.2-2.81,2.46-6.32t2.56-7.42q.7-3.41,1.45-6.87T104,83.31q.1-1.2.2-2.66a18,18,0,0,0,0-2.66,4.93,4.93,0,0,0-.55-2,1.55,1.55,0,0,0-1.45-.8,3.78,3.78,0,0,0-2.51,1.56,27.46,27.46,0,0,0-3,4.11,57.88,57.88,0,0,0-3.06,5.82A64.14,64.14,0,0,0,91,93.24,48.48,48.48,0,0,0,89,101.62a46.87,46.87,0,0,0-.6,7.72,22.09,22.09,0,0,0,.65,5.57Q89.64,117,90.74,116.91Z"/><path class="cls-1" d="M168.39,70.77q2.91.3,4.62,3.51a11,11,0,0,0-.3-3.11q-.5-1.1.2-1.25a4.81,4.81,0,0,1,2.06.2,10.85,10.85,0,0,1,3,1.4A19.42,19.42,0,0,1,181,73.93a10.68,10.68,0,0,1,2.26,3.16,6.64,6.64,0,0,1,.65,3.61,26.43,26.43,0,0,1-1,4q-.9,3-2.06,6.87t-2.31,8.18q-1.16,4.27-1.91,7.92a35,35,0,0,0-.8,6.17q-.05,2.51,1.15,2.71,1.2.4,3.06-2.16a56.25,56.25,0,0,0,4-6.52q2.11-4,4.21-8.63T192,90.63c.27-.73.6-1.17,1-1.3a1.22,1.22,0,0,1,1.15.2,2.86,2.86,0,0,1,.9,1.25,3.75,3.75,0,0,1,.15,2.06q-1.3,4.31-3.21,9.43a70.55,70.55,0,0,1-4.41,9.63,41.2,41.2,0,0,1-5.32,7.62q-2.81,3.11-5.82,3.31a6.33,6.33,0,0,1-3.51-.8,10.33,10.33,0,0,1-2.81-2.31,11.2,11.2,0,0,1-1.9-3.16,18.7,18.7,0,0,1-1-3.26,31,31,0,0,1-3.56,6.32,6.27,6.27,0,0,1-4.57,2.81,7.34,7.34,0,0,1-5.47-2.26,15.45,15.45,0,0,1-3.81-6.72,32.64,32.64,0,0,1-1.2-10.43,54.93,54.93,0,0,1,2.26-13.49,67.35,67.35,0,0,1,2.76-7.42A25.22,25.22,0,0,1,157.35,76a17,17,0,0,1,4.92-4.06A10.69,10.69,0,0,1,168.39,70.77Zm-9.93,46.15a3.94,3.94,0,0,0,2.81-1.86,22.67,22.67,0,0,0,2.51-4.56q1.2-2.81,2.46-6.32t2.56-7.42q.7-3.41,1.45-6.87t1.45-6.57q.1-1.2.2-2.66a18,18,0,0,0,0-2.66,4.93,4.93,0,0,0-.55-2,1.55,1.55,0,0,0-1.45-.8,3.78,3.78,0,0,0-2.51,1.56,27.46,27.46,0,0,0-3,4.11,57.88,57.88,0,0,0-3.06,5.82,64.14,64.14,0,0,0-2.61,6.57,48.48,48.48,0,0,0-2.06,8.38,46.87,46.87,0,0,0-.6,7.72,22.09,22.09,0,0,0,.65,5.57Q157.35,117,158.45,116.91Z"/><path class="cls-1" d="M200.69,96.95q-.2,3-.35,6.17a29.65,29.65,0,0,0,.25,5.82,14,14,0,0,0,1.35,4.46,3.51,3.51,0,0,0,2.86,2,6.62,6.62,0,0,0,4.82-2.21,29.33,29.33,0,0,0,4.62-5.92,67.3,67.3,0,0,0,4.16-8.08q2-4.46,3.66-8.58a2.47,2.47,0,0,1,1.1-1.25,1.13,1.13,0,0,1,1.15.15,2.55,2.55,0,0,1,.85,1.25,3.58,3.58,0,0,1,0,2.06,96.24,96.24,0,0,1-3.51,9.53,72.54,72.54,0,0,1-5,9.78,35.91,35.91,0,0,1-6.12,7.62,9.94,9.94,0,0,1-6.72,3.06,8.28,8.28,0,0,1-5.32-1.76,15.18,15.18,0,0,1-3.76-4.51,23.73,23.73,0,0,1-2.36-6,57.55,57.55,0,0,1-1.2-6.37,54,54,0,0,1-.45-5.82q0-2.71.05-4.11l.6-6.52a169,169,0,0,1,3.21-21.87,130.26,130.26,0,0,1,5.72-19.56A68.15,68.15,0,0,1,208,31.44q4.26-6,9.08-8a4.05,4.05,0,0,1,3.16.35,9.86,9.86,0,0,1,3.36,2.61,15.72,15.72,0,0,1,2.51,4.11,8.17,8.17,0,0,1,.6,4.66,72.43,72.43,0,0,1-3,12.79,118.93,118.93,0,0,1-5.27,13.34,102.42,102.42,0,0,1-6.82,12.39,56.54,56.54,0,0,1-7.88,9.83l-2.91,13.44Zm21.87-65.81q-1.81.6-4,4.46a73.48,73.48,0,0,0-4.57,10q-2.36,6.17-4.66,14.2t-4.21,17a59.45,59.45,0,0,0,5.17-8.23q2.56-4.81,4.82-10t4.06-10.18q1.81-5,2.86-9a39.29,39.29,0,0,0,1.25-6.27Q223.46,30.84,222.56,31.14Z"/><path class="cls-1" d="M217.54,110.29a59.33,59.33,0,0,1,1.3-10.23q1.2-5.92,2.51-11.74t2-10.58q.7-4.76-.1-6.57-.6-1.6,1.05-1.4a10.41,10.41,0,0,1,3.91,1.56,16.27,16.27,0,0,1,4.26,3.86,8.64,8.64,0,0,1,2,5.52,19.46,19.46,0,0,1-.75,4L232,91.33q-1,3.71-2.06,7.82t-1.76,7.57a41.56,41.56,0,0,0-.75,5.77q-.1,2.31.9,2.61,1.3.4,3.11-2a41.34,41.34,0,0,0,3.71-6q1.9-3.66,3.81-8.13t3.61-8.38a2.1,2.1,0,0,1,1-1.25,1.13,1.13,0,0,1,1.15.15,2.86,2.86,0,0,1,.9,1.25,3.26,3.26,0,0,1,.05,2.06q-.8,2.81-2,6.07t-2.56,6.62q-1.4,3.36-3,6.42a35.24,35.24,0,0,1-3.41,5.37,21.38,21.38,0,0,1-3.76,3.81,7.78,7.78,0,0,1-4,1.7,6.16,6.16,0,0,1-4.41-1.2,11.18,11.18,0,0,1-3-3.51,16.84,16.84,0,0,1-1.66-4.26A16.4,16.4,0,0,1,217.54,110.29Z"/><path class="cls-1" d="M259,70.77q2.91.3,4.62,3.51a11,11,0,0,0-.3-3.11q-.5-1.1.2-1.25a4.81,4.81,0,0,1,2.06.2,10.87,10.87,0,0,1,3,1.4,19.41,19.41,0,0,1,3.06,2.41,10.68,10.68,0,0,1,2.26,3.16,6.65,6.65,0,0,1,.65,3.61,26.36,26.36,0,0,1-1,4q-.91,3-2.06,6.87t-2.31,8.18q-1.16,4.27-1.9,7.92a34.86,34.86,0,0,0-.8,6.17q-.05,2.51,1.15,2.71,1.2.4,3.06-2.16a56.26,56.26,0,0,0,4-6.52q2.11-4,4.21-8.63t3.71-8.58c.27-.73.6-1.17,1-1.3a1.22,1.22,0,0,1,1.15.2,2.87,2.87,0,0,1,.9,1.25,3.75,3.75,0,0,1,.15,2.06q-1.31,4.31-3.21,9.43a70.55,70.55,0,0,1-4.41,9.63,41.2,41.2,0,0,1-5.31,7.62q-2.81,3.11-5.82,3.31a6.33,6.33,0,0,1-3.51-.8,10.33,10.33,0,0,1-2.81-2.31,11.2,11.2,0,0,1-1.9-3.16,18.7,18.7,0,0,1-1-3.26,31,31,0,0,1-3.56,6.32,6.27,6.27,0,0,1-4.57,2.81,7.34,7.34,0,0,1-5.47-2.26,15.45,15.45,0,0,1-3.81-6.72,32.64,32.64,0,0,1-1.2-10.43,54.93,54.93,0,0,1,2.26-13.49,67.35,67.35,0,0,1,2.76-7.42A25.22,25.22,0,0,1,247.93,76a17,17,0,0,1,4.92-4.06A10.69,10.69,0,0,1,259,70.77ZM249,116.91a3.94,3.94,0,0,0,2.81-1.86,22.67,22.67,0,0,0,2.51-4.56q1.2-2.81,2.46-6.32t2.56-7.42q.7-3.41,1.45-6.87t1.45-6.57q.1-1.2.2-2.66a18,18,0,0,0,0-2.66,4.93,4.93,0,0,0-.55-2,1.55,1.55,0,0,0-1.45-.8A3.78,3.78,0,0,0,258,76.74a27.46,27.46,0,0,0-3,4.11,57.88,57.88,0,0,0-3.06,5.82,64.14,64.14,0,0,0-2.61,6.57,48.48,48.48,0,0,0-2.06,8.38,46.87,46.87,0,0,0-.6,7.72,22.09,22.09,0,0,0,.65,5.57Q247.94,117,249,116.91Z"/><polygon class="cls-1" points="201.28 169.8 193.95 138.83 186.46 154.09 170.79 160.66 201.28 169.8"/><path class="cls-1" d="M170.58,36.12c-8.72,1.33-16.9,2.5-24,3.65a9.26,9.26,0,0,0,0-2.62,10.06,10.06,0,0,0-2.61-4.86A19.57,19.57,0,0,0,139.85,29a7.86,7.86,0,0,0-3.51-1.25q-1.46,0-.85,1.35a9.28,9.28,0,0,1,0,3.91q-.35,3-1.15,7.62L134.11,42c-7.83,1.68-12.93,3.51-13.77,5.91-1.14,3.26,0,6.53,1.67,6.53,0,0,1-2,10.55-4.71-.9,4.41-1.89,9.06-3,14.08q-1.91,8.63-3.61,16.5t-3,14.15a64.13,64.13,0,0,0-1.35,9.18,25.65,25.65,0,0,0,.45,5.22,22.13,22.13,0,0,0,2.21,6.52,15.79,15.79,0,0,0,4.46,5.37,9.45,9.45,0,0,0,12.94-1.61,38.08,38.08,0,0,0,5.42-7.47,80.42,80.42,0,0,0,4.57-9.48q2.05-5.06,3.36-9.38a3.27,3.27,0,0,0,0-2.06,2.86,2.86,0,0,0-.9-1.25,1.13,1.13,0,0,0-1.15-.15,2.1,2.1,0,0,0-1,1.25q-1.61,4-3.71,8.23T144,106.73a46.12,46.12,0,0,1-4.06,6.07,8.24,8.24,0,0,1-3.26,2.81,5.49,5.49,0,0,1-2.21.15,2.92,2.92,0,0,1-1.81-.9,4.27,4.27,0,0,1-1-2.26,10.52,10.52,0,0,1,.35-4q.4-1.6,1.3-5.82t2.16-10q1.25-5.77,2.71-12.39t2.81-13l2.56-12.14c.67-3.2,1.22-5.94,1.66-8.29C165.79,43,168.64,42.38,170.39,42c2.49-.57,2.49-1.48,2.49-3.55S172.37,35.85,170.58,36.12Z"/><path class="cls-1" d="M231.92,68.31c2.27.71,11.27-4.06,12.65-8.5a5.8,5.8,0,0,0-7.78-7.08,5.8,5.8,0,0,0-10.43,1.38C225,58.55,229.63,67.59,231.92,68.31Z"/><rect class="cls-2" x="51.81" y="186.76" width="189.33" height="27.81"/><path class="cls-3" d="M74.79,205.79a.29.29,0,0,1,.16.07c.06,0,.09.09.09.12q0,.75,0,1.49v1.48h-5.3v-3.18h.68v-3.3H69.32q-.56,0-1.12,0s-.1,0-.15.12a.38.38,0,0,0-.08.21c0,.45,0,.9,0,1.33v1.33c0,.19.1.28.3.28h.58v3.15H66.22l-2.31,0a.35.35,0,0,1-.4-.4q0-.61,0-1.19v-1.19a.55.55,0,0,1,.08-.34c.05-.07.17-.1.34-.08a3.07,3.07,0,0,0,.46,0h.48v-10h-.49a3.58,3.58,0,0,0-.49,0,.33.33,0,0,1-.4-.37q0-.61,0-1.23v-1.23a.56.56,0,0,1,.07-.31c0-.07.15-.11.33-.11l2.31,0h2.62v3.13h-.62a.22.22,0,0,0-.17.06.3.3,0,0,0,0,.19v1.62q0,.63,0,1.26a.37.37,0,0,0,.42.42l1,0h1.05v-3.48l-.7-.07v-3.13h5.35v1.88c0,.29,0,.58,0,.88a.5.5,0,0,1-.07.3c0,.06-.15.09-.3.07a3.75,3.75,0,0,0-.5,0h-.5v10h.56a4.6,4.6,0,0,1,.56,0Z"/><path class="cls-3" d="M96.27,200.72q0,1.4,0,2.77t0,2.77a.92.92,0,0,1-.12.49,1.8,1.8,0,0,1-.33.37l-.94.78-.93.76a.88.88,0,0,1-.56.19q-1.87,0-3.72,0a.69.69,0,0,1-.42-.16l-1-.81-1-.83a1,1,0,0,1-.37-.77q0-2.8,0-5.57t0-5.57a1,1,0,0,1,.07-.35.82.82,0,0,1,.19-.3q.54-.47,1.1-.91l1.12-.89a.66.66,0,0,1,.21-.11.83.83,0,0,1,.23,0c.51,0,1,0,1.54,0s1,0,1.54,0a1.42,1.42,0,0,1,.82.14,3.69,3.69,0,0,1,.68.47q.72.63,1.45,1.17a1.51,1.51,0,0,1,.33.34.86.86,0,0,1,.12.48q0,1.4,0,2.77t0,2.77Zm-3.15,4.09v-8.06A1,1,0,0,0,92,195.67H90.91a.89.89,0,0,0-.67.28.94.94,0,0,0-.27.68v8.13a.83.83,0,0,0,.93.94h1.26a.8.8,0,0,0,.91-.89Z"/><path class="cls-3" d="M119,196.75h-3q0-.26,0-.48a1.88,1.88,0,0,0,0-.46.48.48,0,0,0-.11-.19.35.35,0,0,0-.17-.12.75.75,0,0,0-.32,0c-.1,0-.17.1-.2.26a1.28,1.28,0,0,0,0,.28v9c0,.27,0,.43.08.48s.21.08.48.08a4.49,4.49,0,0,1,.56,0,.4.4,0,0,1,.26.1.42.42,0,0,1,.07.27v2.41a.53.53,0,0,1-.07.29.32.32,0,0,1-.28.11h-5.55l-.1,0v-2.36c0-.19,0-.33,0-.43a.35.35,0,0,1,0-.22s.1-.07.21-.08h.49l.32,0,.34,0v-5q0-2.27,0-4.56a.41.41,0,0,0-.47-.47c-.19,0-.3,0-.35.13a.62.62,0,0,0,0,.36,2.16,2.16,0,0,1,0,.39c0,.13,0,.27,0,.41H108v-4.42h10.89v4.39Z"/><path class="cls-3" d="M159.73,196.75h-3q0-.26,0-.48a1.88,1.88,0,0,0,0-.46.48.48,0,0,0-.11-.19.35.35,0,0,0-.17-.12.75.75,0,0,0-.32,0c-.1,0-.17.1-.2.26a1.28,1.28,0,0,0,0,.28v9c0,.27,0,.43.08.48s.21.08.48.08a4.49,4.49,0,0,1,.56,0,.4.4,0,0,1,.26.1.42.42,0,0,1,.07.27v2.41a.53.53,0,0,1-.07.29.32.32,0,0,1-.28.11H151.4l-.1,0v-2.36c0-.19,0-.33,0-.43a.35.35,0,0,1,0-.22s.1-.07.21-.08H152l.32,0,.34,0v-5q0-2.27,0-4.56a.41.41,0,0,0-.47-.47c-.19,0-.3,0-.35.13a.62.62,0,0,0,0,.36,2.16,2.16,0,0,1,0,.39c0,.13,0,.27,0,.41h-3.08v-4.42h10.89v4.39Z"/><path class="cls-3" d="M181,204.32q0,1.12,0,2.21v2.21h-9.67v-3.15h1.33v-10h-1.31v-3.18H181v4.81h-3.13V195.6h-2v3.46h3v3.2h-2.69l-.21,0c-.06,0-.09.09-.09.21v3h2V205c0-.18,0-.35,0-.52a.31.31,0,0,1,.35-.35h1.26l1.26,0a.31.31,0,0,1,.17.08c.07.05.1.1.1.13Z"/><path class="cls-3" d="M202.32,204.32q0,1.12,0,2.21v2.21h-9.67v-3.15H194v-10h-1.31v-3.18h9.63v4.81h-3.13V195.6h-2v3.46h3v3.2h-2.69l-.21,0c-.06,0-.09.09-.09.21v3h2V205c0-.18,0-.35,0-.52a.31.31,0,0,1,.35-.35h1.26l1.26,0a.31.31,0,0,1,.17.08c.07.05.1.1.1.13Z"/><path class="cls-3" d="M226.88,205.84c0,.48,0,1,0,1.44v1.46h-5.47q0-.7,0-1.4a10,10,0,0,1,0-1.38,1.87,1.87,0,0,0-.08-.82c-.09-.23-.18-.48-.29-.72-.17-.44-.36-.87-.57-1.29s-.42-.85-.62-1.29l-.65-1.44c-.22-.48-.45-1-.7-1.44v6.57h1v3.15H214v-3.13h1.36v-10H214v-3.15h2.63l2.28,0a.51.51,0,0,1,.33.09.66.66,0,0,1,.19.26l1.07,2.52,1.07,2.52c.08.2.16.4.25.6l.27.6a.64.64,0,0,0,.12.16l.19.19v-3.39a.29.29,0,0,0-.33-.33h-.51v-3.18h3.55l1.47,0a.51.51,0,0,1,.26.08c.09.05.14.1.14.15q0,.72,0,1.45v1.47h-1.38v10h.53a4,4,0,0,1,.52,0,.33.33,0,0,1,.2.08c.07.06.1.1.1.13Z"/></g></g></svg>